C:\Users\movea\Dropbox\PhDWork\ExperimentalData\subject7\100\P7S100W01_filtered35.mot
nRows=11
nColumns=28

name C:\Users\movea\Dropbox\PhDWork\ExperimentalData\subject7\100\P7S100W01_filtered35.mot
datacolumns 28
datarows 11
range 1.2350000000 1.2450000000
endheader
time	ground_force_1_vx	ground_force_1_vy	ground_force_1_vz	ground_force_1_px	ground_force_1_py	ground_force_1_pz	ground_moment_1_mx	ground_moment_1_my	ground_moment_1_mz	ground_force_2_vx	ground_force_2_vy	ground_force_2_vz	ground_force_2_px	ground_force_2_py	ground_force_2_pz	ground_moment_2_mx	ground_moment_2_my	ground_moment_2_mz	ground_force_3_vx	ground_force_3_vy	ground_force_3_vz	ground_force_3_px	ground_force_3_py	ground_force_3_pz	ground_moment_3_mx	ground_moment_3_my	ground_moment_3_mz
        1.2350000000	        0.0000000000	        0.0000000000	       -0.0000000000	        0.1988394955	        0.0000558755	       -0.3004071329	        0.0000000000	        0.0000000000	        0.0000000000	      -18.8188047314	      635.6857652784	       28.7032192527	        0.2029003516	       -0.0000795827	        0.4543649445	     -159.8357768795	      -10.3123524825	       39.0981303699	        0.0000000057	        0.0000000000	       -0.0000025775	        0.2076431971	        0.0000770316	        1.3583900146	       -0.0000008085	       -0.0000002298	        0.0000003844	
        1.2360000000	        0.0000000000	        0.0000000000	       -0.0000000000	        0.1988394955	        0.0000558755	       -0.3004071329	        0.0000000000	        0.0000000000	        0.0000000000	      -19.0207079757	      636.9646907482	       29.3463572688	        0.2029003516	       -0.0000795827	        0.4543649445	     -160.2420313120	      -10.4046954984	       39.1964142347	       -0.0000000582	        0.0000000000	       -0.0000030715	        0.2076431971	        0.0000770316	        1.3583900146	       -0.0000010141	       -0.0000002600	        0.0000004888	
        1.2370000000	        0.0000000000	        0.0000000000	       -0.0000000000	        0.1988394955	        0.0000558755	       -0.3004071329	        0.0000000000	        0.0000000000	        0.0000000000	      -19.2333084712	      638.1942760237	       29.9836257504	        0.2029003516	       -0.0000795827	        0.4543649445	     -160.6413199043	      -10.4956827370	       39.2930268336	       -0.0000001470	        0.0000000000	       -0.0000035158	        0.2076431971	        0.0000770316	        1.3583900146	       -0.0000012234	       -0.0000002804	        0.0000005975	
        1.2380000000	        0.0000000000	        0.0000000000	       -0.0000000000	        0.1988394955	        0.0000558755	       -0.3004071329	        0.0000000000	        0.0000000000	        0.0000000000	      -19.4557027785	      639.3750300501	       30.6174513552	        0.2029003516	       -0.0000795827	        0.4543649445	     -161.0336236728	      -10.5852805822	       39.3874382252	       -0.0000002642	        0.0000000000	       -0.0000038458	        0.2076431971	        0.0000770316	        1.3583900146	       -0.0000014187	       -0.0000002846	        0.0000007025	
        1.2390000000	        0.0000000000	        0.0000000000	       -0.0000000000	        0.1988394955	        0.0000558755	       -0.3004071329	        0.0000000000	        0.0000000000	        0.0000000000	      -19.6873367608	      640.5087574262	       31.2507440539	        0.2029003516	       -0.0000795827	        0.4543649445	     -161.4188773381	      -10.6736382377	       39.4794861440	       -0.0000004125	        0.0000000000	       -0.0000039768	        0.2076431971	        0.0000770316	        1.3583900146	       -0.0000015756	       -0.0000002645	        0.0000007922	
        1.2400000000	        0.0000000000	        0.0000000000	       -0.0000000000	        0.1988394955	        0.0000558755	       -0.3004071329	        0.0000000000	        0.0000000000	       -0.0000000000	      -19.9278012479	      641.5988929991	       31.8868667211	        0.2029003516	       -0.0000795827	        0.4543649445	     -161.7966897581	      -10.7611367044	       39.5691980798	       -0.0000005929	        0.0000000000	       -0.0000038026	        0.2076431971	        0.0000770316	        1.3583900146	       -0.0000016613	       -0.0000002104	        0.0000008514	
        1.2410000000	        0.0000000000	        0.0000000000	        0.0000000000	        0.1988394955	        0.0000558755	       -0.3004071329	       -0.0000000000	        0.0000000000	       -0.0000000000	      -20.1765735892	      642.6493102399	       32.5291278269	        0.2029003516	       -0.0000795827	        0.4543649445	     -162.1661385920	      -10.8482693975	       39.6565499072	       -0.0000008039	        0.0000000000	       -0.0000031947	        0.2076431971	        0.0000770316	        1.3583900146	       -0.0000016340	       -0.0000001113	        0.0000008599	
        1.2420000000	        0.0000000000	        0.0000000000	        0.0000000000	        0.1988394955	        0.0000558755	       -0.3004071329	       -0.0000000000	        0.0000000000	       -0.0000000000	      -20.4329632605	      643.6618429182	       33.1801001195	        0.2029003516	       -0.0000795827	        0.4543649445	     -162.5258957176	      -10.9354267878	       39.7414567003	       -0.0000010407	        0.0000000000	       -0.0000020040	        0.2076431971	        0.0000770316	        1.3583900146	       -0.0000014430	        0.0000000450	        0.0000007931	
        1.2430000000	       -0.0000000000	        0.0000000000	        0.0000000000	        0.1988394955	        0.0000558755	       -0.3004071329	       -0.0000000000	        0.0000000000	       -0.0000000000	      -20.6962679329	      644.6362200930	       33.8411938818	        0.2029003516	       -0.0000795827	        0.4543649445	     -162.8746726789	      -11.0228251156	       39.8238810111	       -0.0000012934	        0.0000000000	       -0.0000000645	        0.2076431971	        0.0000770316	        1.3583900146	       -0.0000010282	        0.0000002711	        0.0000006213	
        1.2440000000	       -0.0000000000	        0.0000000000	        0.0000000000	        0.1988394955	        0.0000558755	       -0.3004071329	       -0.0000000000	       -0.0000000000	       -0.0000000000	      -20.9655671396	      645.5736861009	       34.5127872253	        0.2029003516	       -0.0000795827	        0.4543649445	     -163.2116106675	      -11.1105564675	       39.9038652469	       -0.0000015464	        0.0000000000	        0.0000027992	        0.2076431971	        0.0000770316	        1.3583900146	       -0.0000003222	        0.0000005793	        0.0000003109	
        1.2450000000	       -0.0000000000	        0.0000000000	        0.0000000000	        0.1988394955	        0.0000558755	       -0.3004071329	       -0.0000000000	       -0.0000000000	       -0.0000000000	      -21.2393115202	      646.4787877498	       35.1946526493	        0.2029003516	       -0.0000795827	        0.4543649445	     -163.5363671420	      -11.1985768259	       39.9813591876	       -0.0000017763	        0.0000038805	        0.0000067602	        0.2076431971	        0.0000770316	        1.3583900146	        0.0000007479	        0.0000009799	       -0.0000001752	
